<?xml version="1.0" encoding="utf-8"?>
<svg xmlns="http://www.w3.org/2000/svg" viewBox="104.796 49.784 271.998 76.725">
  <text style="font-family: Tahoma, Verdana, sans-serif; font-size: 24px; white-space: pre;" x="183.576" y="86.112">ePaperThingy</text>
  <text style="fill: rgb(127, 127, 127); font-family: Tahoma, Verdana, sans-serif; font-size: 18px; white-space: pre;" x="221.778" y="105.616">Firmware Update</text>
  <path d="M 137.22 65.351 C 129.718 65.351 123.939 71.447 123.622 78.949 L 123.622 106.144 L 144.019 106.144 L 144.019 89.056 C 146.512 91.3 149.684 92.546 153.084 92.546 C 160.585 92.546 166.681 86.45 166.681 78.949 C 166.681 71.447 160.585 65.351 153.084 65.351 L 137.22 65.351 M 137.22 69.884 L 142.976 69.884 C 140.732 72.376 139.486 75.549 139.486 78.949 L 139.486 85.748 L 137.22 85.748 L 137.22 88.014 L 139.486 88.014 L 139.486 101.612 L 128.155 101.612 L 128.155 88.014 L 130.421 88.014 L 130.421 85.748 L 128.155 85.748 L 128.155 78.949 C 128.155 73.94 132.211 69.884 137.22 69.884 M 153.084 69.884 C 158.092 69.884 162.149 73.94 162.149 78.949 C 162.149 83.957 158.092 88.014 153.084 88.014 C 148.075 88.014 144.019 83.957 144.019 78.949 C 144.019 73.94 148.075 69.884 153.084 69.884 M 153.084 74.983 C 150.885 74.983 149.118 76.75 149.118 78.949 C 149.118 81.147 150.885 82.915 153.084 82.915 C 155.282 82.915 157.05 81.147 157.05 78.949 C 157.05 76.75 155.282 74.983 153.084 74.983 M 132.687 85.748 L 132.687 88.014 L 134.953 88.014 L 134.953 85.748 L 132.687 85.748 Z" style=""/>
</svg>