<?xml version="1.0" encoding="UTF-8"?>
<svg version="1.1" viewBox="0 0 200 200" xml:space="preserve" xmlns="http://www.w3.org/2000/svg"><g stroke-width="5.7143"><path d="m100 108.57c6.2857 0 11.429 5.0857 11.429 11.429s-5.0857 11.429-11.429 11.429c-6.3429 0-11.429-5.0857-11.429-11.429s5.1429-11.429 11.429-11.429m45.714-68.571c-15.771 0-28.571 12.8-28.571 28.571v11.429h-51.429c-6.2857 0-11.429 5.1429-11.429 11.429v57.143c0 6.2857 5.1429 11.429 11.429 11.429h68.571c6.2857 0 11.429-5.1429 11.429-11.429v-57.143c0-6.2857-5.1429-11.429-11.429-11.429h-5.7143v-11.429c0-9.4857 7.6572-17.143 17.143-17.143 9.4857 0 17.143 7.6571 17.143 17.143v11.429h11.429v-11.429c0-15.771-12.8-28.571-28.571-28.571m-11.429 51.429v57.143h-68.571v-57.143z"/><path d="m100 108.57c6.2857 0 11.429 5.0857 11.429 11.429s-5.0857 11.429-11.429 11.429c-6.3429 0-11.429-5.0857-11.429-11.429s5.1429-11.429 11.429-11.429m45.714-68.571c-15.771 0-28.571 12.8-28.571 28.571v11.429h-51.429c-6.2857 0-11.429 5.1429-11.429 11.429v57.143c0 6.2857 5.1429 11.429 11.429 11.429h68.571c6.2857 0 11.429-5.1429 11.429-11.429v-57.143c0-6.2857-5.1429-11.429-11.429-11.429h-5.7143v-11.429c0-9.4857 7.6572-17.143 17.143-17.143 9.4857 0 17.143 7.6571 17.143 17.143v11.429h11.429v-11.429c0-15.771-12.8-28.571-28.571-28.571m-11.429 51.429v57.143h-68.571v-57.143z" fill="#f00" fill-opacity=".5"/></g></svg>
