<?xml version="1.0" encoding="UTF-8"?>
<svg version="1.1" viewBox="0 0 24 24" xmlns="http://www.w3.org/2000/svg">
<svg viewBox="0 0 24 24" xmlns="http://www.w3.org/2000/svg">
<path d="m9 3c-3.31 0-5.86 2.69-6 6v12h9v-7.54c1.1 0.99 2.5 1.54 4 1.54 3.31 0 6-2.69 6-6s-2.69-6-6-6h-7m0 2h2.54c-0.99 1.1-1.54 2.5-1.54 4v3h-1v1h1v6h-5v-6h1v-1h-1v-3c0-2.21 1.79-4 4-4m7 0c2.21 0 4 1.79 4 4s-1.79 4-4 4-4-1.79-4-4 1.79-4 4-4m0 2.25c-0.97 0-1.75 0.78-1.75 1.75s0.78 1.75 1.75 1.75 1.75-0.78 1.75-1.75-0.78-1.75-1.75-1.75m-9 4.75v1h1v-1h-1z"/>
</svg>
<style>@media (prefers-color-scheme: light) { :root { filter: none; } }
@media (prefers-color-scheme: dark) { :root { filter: none; } }</style>
</svg>
