<?xml version="1.0" encoding="UTF-8"?>
<svg version="1.1" viewBox="104.8 49.784 272 76.725" xmlns="http://www.w3.org/2000/svg">
<text x="183.576" y="86.112" font-family="Tahoma, Verdana, sans-serif" font-size="24px" style="white-space:pre">ePaperThingy</text>
<text x="260.60907" y="105.26443" fill="#7f7f7f" font-family="Tahoma, Verdana, sans-serif" font-size="18px" style="white-space:pre">Screen Test</text>
<path d="m137.22 65.351c-7.502 0-13.281 6.096-13.598 13.598v27.195h20.397v-17.088c2.493 2.244 5.665 3.49 9.065 3.49 7.501 0 13.597-6.096 13.597-13.597 0-7.502-6.096-13.598-13.597-13.598h-15.864m0 4.533h5.756c-2.244 2.492-3.49 5.665-3.49 9.065v6.799h-2.266v2.266h2.266v13.598h-11.331v-13.598h2.266v-2.266h-2.266v-6.799c0-5.009 4.056-9.065 9.065-9.065m15.864 0c5.008 0 9.065 4.056 9.065 9.065 0 5.008-4.057 9.065-9.065 9.065-5.009 0-9.065-4.057-9.065-9.065 0-5.009 4.056-9.065 9.065-9.065m0 5.099c-2.199 0-3.966 1.767-3.966 3.966 0 2.198 1.767 3.966 3.966 3.966 2.198 0 3.966-1.768 3.966-3.966 0-2.199-1.768-3.966-3.966-3.966m-20.397 10.765v2.266h2.266v-2.266h-2.266z" style=""/>
</svg>
