<?xml version="1.0" encoding="UTF-8"?>
<svg version="1.1" viewBox="0 0 200 200" xml:space="preserve" xmlns="http://www.w3.org/2000/svg"><path d="m100 131.43c-6.3429 0-11.429-5.1429-11.429-11.429 0-6.3429 5.0857-11.429 11.429-11.429a11.429 11.429 0 0 1 11.429 11.429 11.429 11.429 0 0 1-11.429 11.429m34.286 17.143v-57.143h-68.571v57.143h68.571m0-68.571a11.429 11.429 0 0 1 11.429 11.429v57.143a11.429 11.429 0 0 1-11.429 11.429h-68.571c-6.3429 0-11.429-5.1429-11.429-11.429v-57.143c0-6.3429 5.0857-11.429 11.429-11.429h5.7143v-11.429a28.571 28.571 0 0 1 28.571-28.571 28.571 28.571 0 0 1 28.571 28.571v11.429h5.7143m-34.286-28.571a17.143 17.143 0 0 0-17.143 17.143v11.429h34.286v-11.429a17.143 17.143 0 0 0-17.143-17.143z" stroke-width="5.7143"/></svg>
