<?xml version="1.0" encoding="UTF-8"?>
<svg version="1.1" viewBox="0 0 200 200" xml:space="preserve" xmlns="http://www.w3.org/2000/svg"><path d="m76.667 40c-22.067 0-39.067 17.933-40 40v80h60v-50.267c7.3333 6.6 16.667 10.267 26.667 10.267 22.067 0 40-17.933 40-40 0-22.067-17.933-40-40-40h-46.667m0 13.333h16.933c-6.6 7.3333-10.267 16.667-10.267 26.667v20h-6.6667v6.6667h6.6667v40h-33.333v-40h6.6667v-6.6667h-6.6667v-20c0-14.733 11.933-26.667 26.667-26.667m46.667 0c14.733 0 26.667 11.933 26.667 26.667 0 14.733-11.933 26.667-26.667 26.667-14.733 0-26.667-11.933-26.667-26.667 0-14.733 11.933-26.667 26.667-26.667m0 15c-6.4667 0-11.667 5.2-11.667 11.667 0 6.4667 5.2 11.667 11.667 11.667s11.667-5.2 11.667-11.667c0-6.4667-5.2-11.667-11.667-11.667m-60 31.667v6.6667h6.6667v-6.6667z" stroke-width="6.6667"/></svg>
